<svg width="17" height="16" viewBox="0 0 17 16" fill="none" xmlns="http://www.w3.org/2000/svg">
<path d="M15.7912 15.7116C16.0429 15.7472 16.2954 15.653 16.4623 15.4613C16.6291 15.2696 16.6875 15.0064 16.6174 14.7621L15.2037 9.83622C15.0192 9.19312 14.431 8.75 13.7619 8.75L7.64647 8.75C7.23226 8.75 6.89647 8.41421 6.89647 8C6.89647 7.58579 7.23226 7.25 7.64647 7.25L13.7619 7.25C14.431 7.25 15.0192 6.80688 15.2037 6.16378L16.6174 1.23788C16.6875 0.993584 16.6291 0.730408 16.4623 0.538675C16.2954 0.346943 16.0429 0.252744 15.7912 0.288409C9.95345 1.11582 4.67553 3.68126 0.498161 7.44263C0.340202 7.58486 0.250011 7.78743 0.250011 7.99999C0.250011 8.21254 0.340202 8.41511 0.498161 8.55734C4.67553 12.3187 9.95345 14.8841 15.7912 15.7116Z" fill="#BDBDBD"/>
</svg>
