<svg xmlns="http://www.w3.org/2000/svg" xmlns:xlink="http://www.w3.org/1999/xlink" viewBox="0 0 386.9 291.26"><defs><style>.cls-1,.cls-11,.cls-14,.cls-19,.cls-4{fill:none;}.cls-2{isolation:isolate;}.cls-3{opacity:0.33;}.cls-4{stroke:#dbdbdb;stroke-width:65.29px;}.cls-11,.cls-14,.cls-19,.cls-4{stroke-linecap:round;stroke-linejoin:round;}.cls-5{fill:#353535;opacity:0.3;}.cls-10,.cls-13,.cls-6{fill:#fff;}.cls-7{fill:#ccc;}.cls-12,.cls-8{fill:#f2f2f2;}.cls-9{fill:#ffcf36;}.cls-10{mix-blend-mode:color-burn;}.cls-11{stroke:#919191;}.cls-11,.cls-19{stroke-width:4.72px;}.cls-12,.cls-13{opacity:0.5;}.cls-14,.cls-19{stroke:#5b5b5b;}.cls-14{stroke-width:5.52px;}.cls-15{clip-path:url(#clip-path);}.cls-16{fill:#ddd;}.cls-17{clip-path:url(#clip-path-2);}.cls-18{fill:#feb534;}</style><clipPath id="clip-path"><polyline class="cls-1" points="283.6 13.83 269.43 48.05 292.03 57.4 306.19 23.18 283.6 13.83"/></clipPath><clipPath id="clip-path-2"><polyline class="cls-1" points="55.08 160.05 50.99 192.23 72.24 194.93 76.33 162.75 55.08 160.05"/></clipPath></defs><title>not found</title><g class="cls-2"><g id="Layer_2" data-name="Layer 2"><g id="Layer_1-2" data-name="Layer 1"><g class="cls-3"><polyline class="cls-4" points="74.62 92.5 322.81 131.38 354.26 136.48"/><line class="cls-4" x1="304.99" y1="258.61" x2="56.8" y2="219.73"/><line class="cls-4" x1="280.84" y1="190.19" x2="32.65" y2="151.31"/></g><path class="cls-5" d="M106,196.53s125.79-10.25,144.54,0-96.05,10.36-117,9.07S96,199.72,106,196.53Z"/><polygon class="cls-6" points="88.71 93.01 81.59 71.16 214.48 11.71 225.64 35.7 91.28 95.95 88.71 93.01"/><polygon class="cls-6" points="96.63 134.69 244.38 112.59 240.87 85.23 232.31 80.07 99.85 102.74 93.03 112.04 96.63 134.69"/><polygon class="cls-7" points="100.2 164.74 92.95 115.86 96.57 103.45 229.84 80.49 240.87 85.23 247.64 128 100.2 164.74"/><path class="cls-8" d="M219.65,85.18,240,100.59l-1.37-8.65A9.49,9.49,0,0,0,228,83.86Zm0,0"/><path class="cls-8" d="M192.69,89.46l-23.58,3.75,34.7,25.36L176,123l-34.7-25.36-25.06,4L150.92,127l-27.83,4.42-30-21.9A6.67,6.67,0,0,0,93,112l13,81.76a8.33,8.33,0,0,0,9.51,6.95L245.75,180a8.33,8.33,0,0,0,6.89-9.55l-9.25-58.22-16,2.54Zm1-.16"/><path class="cls-9" d="M244.27,83.86"/><polygon class="cls-8" points="243.39 112.28 94.92 133.81 105.08 193.35 111.76 198.85 135.52 196.18 247.81 177.22 254.04 169.48 243.39 112.28"/><path class="cls-10" d="M242.39,109.63s-60.93,63.75-103,74.13-27.59,15.09-27.59,15.09l118.11-16.28,24.17-11Z"/><rect class="cls-11" x="98.52" y="91.56" width="149.39" height="98.21" rx="9.69" ry="9.69" transform="translate(-19.93 28.92) rotate(-9.03)"/><line class="cls-11" x1="244.06" y1="110.56" x2="97.63" y2="133.83"/><polygon class="cls-8" points="100.89 59.86 81.59 73.93 89.45 95.95 96.38 96.75 220.6 43.93 225.64 35.7 217.91 18.63 213.74 12.82 199.83 17.47 116.61 56.55 100.89 59.86"/><path class="cls-7" d="M196.23,19.66,172.85,29.85l-16,38.35L180.25,58Zm0,0"/><path class="cls-7" d="M146.88,41.16l-22,9.59-16,38.36,22-9.59Zm0,0"/><path class="cls-7" d="M224,32.08l-6.13-13.45L206.22,46.69l14.33-6.25A6.34,6.34,0,0,0,224,32.08Zm0,0"/><path class="cls-7" d="M98.92,62.07,84,68.57a6.34,6.34,0,0,0-3.49,8.37l5.6,12.27.78,1.71L91,81Zm0,0"/><rect class="cls-11" x="78.75" y="39.6" width="149.4" height="30.36" rx="6.66" ry="6.66" transform="translate(-9.01 67.29) rotate(-24.05)"/><rect class="cls-7" x="132.95" y="138.27" width="82.45" height="10.46" transform="translate(-21.61 31.25) rotate(-9.66)"/><rect class="cls-7" x="136.56" y="159.51" width="82.45" height="10.46" transform="translate(-25.12 32.16) rotate(-9.66)"/><path class="cls-12" d="M301.58,115.67a53.32,53.32,0,1,1-51-55.54,53.32,53.32,0,0,1,51,55.54Zm0,1.07"/><path class="cls-13" d="M200.41,141a51.84,51.84,0,0,0,13.95,16.82L293.7,85a53.87,53.87,0,0,0-5-6.49,54.53,54.53,0,0,0-10.54-8.83Zm0,0"/><line class="cls-14" x1="284.12" y1="153.53" x2="322.44" y2="195.26"/><path class="cls-14" d="M301.87,115.69A54.23,54.23,0,1,1,250,59.2,54.18,54.18,0,0,1,301.87,115.69Z"/><g class="cls-15"><path class="cls-16" d="M283.18,52.69a3.41,3.41,0,0,0,2-2.06,3.59,3.59,0,0,0-2-4.76,3.64,3.64,0,0,0-2.85,0,3.48,3.48,0,0,0-2,2,3.39,3.39,0,0,0,0,2.92,3.85,3.85,0,0,0,2,1.89A3.72,3.72,0,0,0,283.18,52.69Zm-3.43-27.12a3.1,3.1,0,0,0,1.76,1.78q2.15.89,4-1.35A10.82,10.82,0,0,1,289,23.13a5.19,5.19,0,0,1,4.18.26,5.3,5.3,0,0,1,3,2.68,4.32,4.32,0,0,1,.08,3.61,3.76,3.76,0,0,1-1.15,1.54,7,7,0,0,1-1.68,1q-.91.38-2.88,1a38.43,38.43,0,0,0-3.66,1.41,8.65,8.65,0,0,0-4.52,4.84,3.28,3.28,0,0,0-.14,2.62,3,3,0,0,0,1.66,1.59,2.72,2.72,0,0,0,3.66-1.24q.7-1,1-1.39a5,5,0,0,1,.72-.74,5.35,5.35,0,0,1,1.09-.69,17.08,17.08,0,0,1,1.74-.72q3.81-1.33,5.32-1.94a11.14,11.14,0,0,0,2.89-1.73,7.57,7.57,0,0,0,2.18-3,8.73,8.73,0,0,0,.5-5.09,10.16,10.16,0,0,0-2.51-4.89,14.3,14.3,0,0,0-5.29-3.61,13.71,13.71,0,0,0-6.77-1.11,11.49,11.49,0,0,0-5.54,2,8.84,8.84,0,0,0-3.18,3.78A3,3,0,0,0,279.75,25.57Z"/></g><g class="cls-17"><path class="cls-16" d="M59.76,192.49A3,3,0,0,1,59.1,190a3.15,3.15,0,0,1,3.57-2.77,3.19,3.19,0,0,1,2.18,1.21,3.05,3.05,0,0,1,.65,2.37,3,3,0,0,1-1.27,2.23,3.38,3.38,0,0,1-2.37.55A3.26,3.26,0,0,1,59.76,192.49Zm14.39-19.14a2.72,2.72,0,0,1-2.12.58q-2-.26-2.44-2.75a9.49,9.49,0,0,0-1.43-3.71,4.55,4.55,0,0,0-3.29-1.62,4.66,4.66,0,0,0-3.41.75,3.79,3.79,0,0,0-1.63,2.71A3.29,3.29,0,0,0,60,171a6.12,6.12,0,0,0,.85,1.48q.53.68,1.74,2a33.92,33.92,0,0,1,2.17,2.66,7.6,7.6,0,0,1,1.33,5.65,2.86,2.86,0,0,1-1,2.05,2.61,2.61,0,0,1-2,.49,2.39,2.39,0,0,1-2.25-2.53q-.1-1.07-.17-1.5a4.46,4.46,0,0,0-.22-.87,4.69,4.69,0,0,0-.53-1,14.86,14.86,0,0,0-1-1.31q-2.32-2.67-3.2-3.79a9.78,9.78,0,0,1-1.44-2.57,6.62,6.62,0,0,1-.33-3.26,7.65,7.65,0,0,1,1.83-4.09,8.9,8.9,0,0,1,4-2.63,12.5,12.5,0,0,1,5.59-.45,12,12,0,0,1,5.63,2.1,10.06,10.06,0,0,1,3.35,3.92,7.75,7.75,0,0,1,.78,4.26A2.59,2.59,0,0,1,74.16,173.35Z"/></g><path class="cls-18" d="M77.82,34.36a3.34,3.34,0,0,1-2-2,3.51,3.51,0,0,1,1.85-4.69,3.56,3.56,0,0,1,2.78-.08,3.41,3.41,0,0,1,2,1.91,3.31,3.31,0,0,1,.05,2.86,3.76,3.76,0,0,1-2,1.88A3.63,3.63,0,0,1,77.82,34.36ZM80.74,7.79A3,3,0,0,1,79,9.56q-2.09.9-3.91-1.25a10.58,10.58,0,0,0-3.49-2.75,5.08,5.08,0,0,0-4.08.32,5.2,5.2,0,0,0-2.85,2.67,4.23,4.23,0,0,0,0,3.53,3.67,3.67,0,0,0,1.15,1.48,6.88,6.88,0,0,0,1.66.94q.9.35,2.83,1a37.73,37.73,0,0,1,3.6,1.32,8.48,8.48,0,0,1,4.5,4.66A3.19,3.19,0,0,1,78.61,24,2.91,2.91,0,0,1,77,25.58a2.66,2.66,0,0,1-3.6-1.15q-.71-1-1-1.35a5.08,5.08,0,0,0-.71-.71,5.32,5.32,0,0,0-1.08-.65A16.65,16.65,0,0,0,68.89,21q-3.75-1.24-5.23-1.81a10.91,10.91,0,0,1-2.85-1.65,7.4,7.4,0,0,1-2.17-2.94,8.54,8.54,0,0,1-.57-5,9.93,9.93,0,0,1,2.38-4.83,14,14,0,0,1,5.11-3.61A13.4,13.4,0,0,1,72.16,0,11.24,11.24,0,0,1,77.6,1.9a8.65,8.65,0,0,1,3.17,3.65A2.89,2.89,0,0,1,80.74,7.79Z"/><path class="cls-19" d="M200.9,86.55,229.71,82a9.69,9.69,0,0,1,11.09,8l12.37,77.85"/><line class="cls-19" x1="244.06" y1="110.56" x2="194.51" y2="118.43"/></g></g></g></svg>